<svg width="105" height="108" viewBox="0 0 105 108" fill="none" xmlns="http://www.w3.org/2000/svg">
<g clip-path="url(#clip0_1_43)">
<path d="M2.29657 1.52823L1.53125 3.05637L4.59252 4.58459C6.2773 5.41349 7.69977 6.11282 7.76467 6.11282C8.1076 5.63422 8.40115 5.12219 8.64086 4.58459L9.40618 3.05637L6.34491 1.52823C4.66013 0.699326 3.23767 0 3.17276 0C2.82996 0.478681 2.53641 0.9907 2.29657 1.52823V1.52823Z" fill="#007073"/>
<path d="M13.2341 6.9877L12.4688 8.51584L15.53 10.0441C17.2148 10.8757 18.6373 11.5723 18.7022 11.5723C19.0449 11.0936 19.3385 10.5816 19.5784 10.0441L20.3437 8.51584L17.2824 6.9877C15.5976 6.1561 14.1752 5.45947 14.1103 5.45947C13.7674 5.93811 13.4738 6.45014 13.2341 6.9877V6.9877Z" fill="#007073"/>
<path d="M25.0473 7.31154L24.5064 7.83534V17.9252L25.0473 18.449C25.3743 18.7911 25.8208 18.9941 26.2939 19.016L27.016 19.0376L26.2507 19.2779C24.8172 19.9865 23.6714 21.1658 23.0055 22.6178C22.6822 23.5252 22.6409 24.509 22.887 25.4402C23.1331 26.3715 23.6551 27.2068 24.3847 27.8369C25.7179 29.1869 26.5941 29.4758 29.3931 29.4758H31.4943V33.299C31.4943 37.079 31.4943 37.1438 32.0352 37.6676C32.2866 37.95 32.6256 38.1401 32.9979 38.2076C33.3927 38.2076 33.4144 38.3156 33.3035 39.3848C33.1607 40.6 33.4633 41.8257 34.1553 42.8354C34.5718 43.4483 34.5718 43.4483 34.1553 44.0369C33.8886 44.4622 33.6683 44.9148 33.4982 45.3869C33.2568 46.1263 33.1906 46.9115 33.3046 47.6808C33.4186 48.4501 33.7098 49.1824 34.1553 49.8203C34.5718 50.4332 34.5718 50.4332 34.1553 51.0218C33.5007 51.9527 33.1832 53.0784 33.2549 54.2136C33.3267 55.3487 33.7835 56.4256 34.5502 57.2669L35.3615 58.1849L34.1797 61.2872C33.5442 62.9909 32.9546 64.673 32.8897 65.0213C32.7599 65.6558 32.7816 65.6774 34.2906 66.1364C35.1424 66.3767 35.8645 66.5955 35.9321 66.5955C36.1962 66.1347 36.4024 65.6431 36.5459 65.132C36.8164 64.3004 37.4222 62.6426 37.8792 61.3979L38.731 59.1704H43.3473C48.837 59.1704 49.34 59.0624 50.8517 57.5342C51.7599 56.7322 52.3369 55.6216 52.4703 54.4184C52.6038 53.2152 52.2842 52.0055 51.5738 51.0246C51.1573 50.436 51.1573 50.4359 51.5738 49.823C51.8446 49.4068 52.0652 48.9599 52.2309 48.4919C52.4714 47.7488 52.5372 46.9604 52.4233 46.1878C52.3093 45.4152 52.0186 44.6792 51.5738 44.0369C51.1573 43.4483 51.1573 43.4483 51.5738 42.8354C52.1611 41.9846 52.4757 40.9757 52.4757 39.9423C52.4757 38.909 52.1611 37.9001 51.5738 37.0493L51.1573 36.4607H58.1128L59.162 40.5431C60.2638 45.0905 61.779 49.5279 63.689 53.8001C64.4111 55.3715 65.482 57.7313 66.0959 59.0408C67.7486 62.9002 69.08 66.889 70.0766 70.9667C71.499 77.3441 71.783 81.2969 71.6992 92.9582C71.6343 102.087 71.6126 102.395 71.1745 102.983C70.8698 103.376 70.5174 103.728 70.1253 104.034C69.5357 104.493 69.36 104.493 52.5149 104.493H35.5048L34.6935 103.858C33.1629 102.7 33.2061 102.962 33.3143 90.6443C33.1518 85.9709 33.3325 81.2919 33.8552 76.6448C34.0958 75.0248 34.396 73.2806 34.5123 72.7568C34.7827 71.6768 34.8612 71.7524 32.7626 71.315L31.2969 71.0315L31.0562 72.1467C29.8475 79.1465 29.4221 86.2587 29.7879 93.3524L29.8528 102.962L30.4423 104.077C31.0524 105.463 32.1379 106.586 33.5036 107.244L34.8828 107.986H70.1199L71.4991 107.244C72.8646 106.586 73.9501 105.463 74.5603 104.077L75.1499 102.962V91.4948C75.3158 86.7446 75.184 81.9888 74.7551 77.255C73.7566 69.4029 71.4572 61.7712 67.951 54.6722C66.3268 51.3247 64.945 47.8652 63.8162 44.3204C63.1366 42.1974 62.5946 40.0329 62.1936 37.8404C62.4991 37.8867 62.7862 38.0156 63.0238 38.213C64.7695 39.0546 66.638 39.6142 68.5595 39.8708L70.0036 40.0247V36.5741L68.3188 36.3041C66.512 36.0398 64.7996 35.3306 63.336 34.2403C61.8724 33.15 60.7037 31.713 59.9355 30.059C59.6222 29.3059 59.1944 28.6055 58.6671 27.9827C58.4481 27.8963 55.6924 27.4805 52.4986 27.0647C46.9413 26.3654 46.679 26.3222 46.1111 25.7552C45.9173 25.5951 45.7618 25.394 45.6557 25.1663C45.5496 24.9387 45.4956 24.6903 45.4977 24.4393C45.4997 24.1882 45.5578 23.9407 45.6676 23.7148C45.7775 23.489 45.9364 23.2904 46.1327 23.1335L46.7682 22.499H58.9971L71.2043 22.5206L74.682 25.1207L78.1598 27.7397H94.5019V52.2017H91.0025V32.9831H87.5031V52.2017H71.7425V55.6955H96.9222L97.4468 55.1555C97.9066 54.7181 97.9877 54.413 97.9877 53.4086V52.2071H100.949C103.815 52.2071 103.945 52.1855 104.448 51.6671L104.989 51.1433V28.8224L104.448 28.2986C103.945 27.7748 103.813 27.7586 100.949 27.7586H98.0012V26.5571C98.0012 25.5527 97.9147 25.2476 97.4604 24.8102L96.9357 24.2702H88.1197L79.3037 24.2486L75.826 21.6512L72.3482 19.0295H68.93L69.4546 18.4895C70.1118 17.855 70.1767 16.721 69.6737 14.777C69.1897 12.9332 68.2206 11.2521 66.8669 9.90813C65.5131 8.56412 63.824 7.60609 61.9745 7.13331C59.3297 6.76395 56.6549 6.65452 53.9887 6.8066H47.2523V10.2788L54.3186 10.3436L61.3498 10.4084L62.4667 10.997C63.0893 11.3225 63.682 11.7019 64.238 12.131C65.2233 13.1421 65.9117 14.4039 66.2284 15.7787C66.1851 16.1486 65.4847 16.4996 62.6614 17.6336L59.1837 19.0322H52.9286C45.627 19.0322 45.1402 19.1186 43.5231 20.7791L42.5387 21.7835L38.777 19.0835L34.991 16.3835V10.3112H43.7421V6.7715H25.5638L25.0473 7.31154ZM31.4997 12.8816V15.5006H28.0004V10.2599H31.4997V12.8816ZM37.9522 23.0363C38.1177 23.1907 38.2508 23.3764 38.3436 23.5827C38.4365 23.789 38.4873 24.0117 38.493 24.2378C38.4874 24.4639 38.4367 24.6866 38.3438 24.8929C38.251 25.0992 38.1178 25.285 37.9522 25.4393L37.4276 25.9793H27.3216L26.7969 25.4393C26.6313 25.285 26.4982 25.0992 26.4053 24.8929C26.3124 24.6866 26.2617 24.4639 26.2561 24.2378C26.2617 24.0117 26.3124 23.789 26.4053 23.5826C26.4982 23.3763 26.6313 23.1906 26.7969 23.0363L27.3216 22.4963H37.4276L37.9522 23.0363ZM42.4359 26.5301C42.5865 26.9511 42.8089 27.343 43.0931 27.6884C43.7502 28.6064 43.7502 28.6064 43.7502 31.6628V34.7219H42.1087C41.559 34.7603 41.0067 34.7231 40.4672 34.6112C40.4672 33.7364 41.4083 26.7488 41.5814 26.225C41.822 25.5257 41.8653 25.5041 42.1493 25.874C42.2916 26.0725 42.3903 26.2989 42.4386 26.5382L42.4359 26.5301ZM37.3194 31.0715C37.2545 31.9463 37.122 33.1235 37.049 33.6932L36.8948 34.7408H35.0018V29.5001H37.4735L37.3194 31.0715ZM52.3256 30.5909C54.3376 30.8312 56.0873 31.0283 56.1981 31.0283C56.309 31.0283 56.6578 31.4657 56.9418 32.0111L57.5097 32.9939H47.2496V29.9132L47.9716 30.0428C48.3448 30.0968 50.3136 30.3371 52.3256 30.5774V30.5909ZM101.49 39.9815V48.7187H98.0012V31.247H101.49V39.9815ZM48.4422 38.78C48.6076 38.9345 48.7406 39.1203 48.8334 39.3266C48.9263 39.5328 48.9771 39.7554 48.9831 39.9815C48.9773 40.2076 48.9265 40.4303 48.8336 40.6365C48.7408 40.8428 48.6077 41.0286 48.4422 41.183L47.9175 41.723H37.8116L37.2869 41.183C37.1214 41.0286 36.9883 40.8428 36.8955 40.6365C36.8026 40.4303 36.7518 40.2076 36.7461 39.9815C36.752 39.7554 36.8029 39.5328 36.8957 39.3266C36.9886 39.1203 37.1215 38.9345 37.2869 38.78L37.8116 38.24H47.9175L48.4422 38.78ZM48.4422 45.7703C48.6077 45.9247 48.7408 46.1105 48.8336 46.3168C48.9265 46.5231 48.9773 46.7457 48.9831 46.9718C48.9774 47.1979 48.9267 47.4207 48.8338 47.627C48.741 47.8333 48.6078 48.019 48.4422 48.1733L47.9175 48.7133H37.8116L37.2869 48.1733C37.1214 48.0189 36.9883 47.8332 36.8955 47.6269C36.8026 47.4206 36.7518 47.1979 36.7461 46.9718C36.7518 46.7457 36.8026 46.5231 36.8955 46.3168C36.9883 46.1105 37.1214 45.9247 37.2869 45.7703L37.8116 45.2303H47.9175L48.4422 45.7703ZM48.4422 52.7606C48.6078 52.9149 48.741 53.1007 48.8338 53.307C48.9267 53.5133 48.9774 53.736 48.9831 53.9621C48.9774 54.1882 48.9267 54.4109 48.8338 54.6172C48.741 54.8236 48.6078 55.0093 48.4422 55.1636L47.9175 55.7036H37.8116L37.2869 55.1636C37.1213 55.0093 36.9881 54.8236 36.8953 54.6172C36.8024 54.4109 36.7517 54.1882 36.7461 53.9621C36.7517 53.736 36.8024 53.5133 36.8953 53.307C36.9881 53.1007 37.1213 52.9149 37.2869 52.7606L37.8116 52.2206H47.9175L48.4422 52.7606Z" fill="#007073"/>
<path d="M0 17.2528V18.9997H6.99874V15.5059H0V17.2528Z" fill="#007073"/>
<path d="M12.25 17.2528V18.9997H19.2514V15.5059H12.25V17.2528Z" fill="#007073"/>
<path d="M15.5761 24.2435L12.4473 25.75L13.2342 27.2998C13.4802 27.8342 13.7734 28.3457 14.1104 28.828C14.1753 28.828 15.5978 28.1287 17.2826 27.2998L20.3438 25.7716L19.5785 24.2435C19.3533 23.7146 19.0751 23.2098 18.7483 22.7368C18.7267 22.7422 17.315 23.4362 15.5761 24.2435Z" fill="#007073"/>
<path d="M4.52762 29.7216L1.53125 31.2309L2.29657 32.7591C2.53633 33.2967 2.82988 33.8086 3.17276 34.2872C3.30527 34.2872 9.03569 31.4469 9.1655 31.3173C8.81349 30.2136 8.31314 29.1627 7.67813 28.1934C7.61323 28.1961 6.19076 28.8711 4.52762 29.7216Z" fill="#007073"/>
<path d="M48.2367 69.9409C46.4353 70.3587 44.7476 71.1658 43.2926 72.3055C41.8376 73.4452 40.6506 74.8896 39.8155 76.537C38.6769 78.8941 38.5039 80.1172 38.5039 85.2283V89.5753L39.0448 90.1153L39.5856 90.6553L48.1826 90.5905L56.758 90.5257L58.202 89.9587C60.8218 89.0759 63.0505 87.3072 64.5031 84.9583C66.1662 82.4041 66.3393 81.5725 66.4502 75.8512L66.5367 70.7833L65.9688 70.2163L65.4279 69.6763L57.3772 69.6979C52.9611 69.7141 48.8479 69.8032 48.2367 69.9409ZM62.9589 76.8205C62.894 80.4034 62.8724 80.5114 62.1936 81.9505C61.3739 83.8404 59.8868 85.3635 58.0154 86.23L56.3523 87.04L49.1561 87.1048L41.96 87.1696L42.0465 83.5003C42.1114 79.9174 42.133 79.8094 42.8118 78.3703C43.2304 77.4965 43.7593 76.6799 44.3857 75.9403C45.5923 74.7552 47.0729 73.8854 48.6964 73.4077C49.1778 73.297 52.5906 73.2106 56.309 73.189L63.0455 73.1674L62.9589 76.8205Z" fill="#007073"/>
</g>
<defs>
<clipPath id="clip0_1_43">
<rect width="105" height="108" fill="white"/>
</clipPath>
</defs>
</svg>
