<svg width="106" height="107" viewBox="0 0 106 107" fill="none" xmlns="http://www.w3.org/2000/svg">
<g clip-path="url(#clip0_1_32)">
<path d="M69.9679 0.48423C69.4931 1.10439 69.1203 1.79717 68.8637 2.53603C68.5688 3.7604 67.9415 4.87833 67.0518 5.76533C66.1621 6.65233 65.045 7.27354 63.8248 7.55966C62.013 8.27121 61.4941 8.73127 61.4941 9.69962C61.4941 10.5369 62.0555 10.9756 64.0961 11.7727C65.2294 12.0891 66.2621 12.6948 67.0937 13.531C67.9254 14.3672 68.5278 15.4055 68.8424 16.545C69.5927 18.4175 69.8216 18.7625 70.3404 18.9926C70.5402 19.0975 70.7628 19.1505 70.9882 19.1468C71.2136 19.143 71.4344 19.0826 71.6307 18.9712C72.1628 18.7411 72.381 18.4362 73.0248 16.7108C73.38 15.4243 74.0809 14.2612 75.0506 13.349C76.0202 12.4368 77.2211 11.8109 78.5214 11.5401C79.9155 11.0051 80.437 10.5155 80.437 9.66754C80.437 8.74734 79.8756 8.26581 78.0851 7.57566C76.8581 7.28347 75.7366 6.65305 74.8465 5.75521C73.9563 4.85736 73.3328 3.7277 73.0461 2.49317C72.216 0.128474 71.1119 -0.583095 69.9679 0.48423ZM73.6101 9.02557L74.4083 9.61138L73.5329 10.1972C72.9249 10.6664 72.3732 11.205 71.8888 11.8022C71.6225 12.1712 71.3154 12.5086 70.9735 12.808C70.6749 12.577 70.4207 12.2933 70.2233 11.9707C69.751 11.3698 69.2057 10.8306 68.6003 10.3657L67.5601 9.58999L68.3582 9.00418C68.9793 8.51776 69.5514 7.97118 70.0663 7.37239L70.9815 6.32649L71.8967 7.39647C72.4188 7.98858 72.9921 8.53286 73.6101 9.02287V9.02557Z" fill="#007073"/>
<path d="M97.2053 2.3248C96.7255 2.84125 96.376 3.46598 96.1863 4.14647C95.9655 4.94096 95.5507 5.66731 94.9797 6.25967C94.4086 6.85202 93.6995 7.29155 92.9166 7.53831C91.126 8.20706 90.5859 8.68858 90.5859 9.54725C90.5859 10.5103 91.118 11.0132 92.6691 11.5562C93.4811 11.7815 94.2226 12.2112 94.8236 12.8047C95.4246 13.3982 95.8652 14.1359 96.1038 14.9481C96.7503 16.6655 97.2292 17.1871 98.1657 17.1871C99.041 17.1871 99.5598 16.6013 100.185 14.9267C100.439 14.1455 100.876 13.4371 101.459 12.8616C102.043 12.2861 102.756 11.8603 103.537 11.6204C106.536 10.4273 106.597 8.77423 103.684 7.66411C102.849 7.44518 102.086 7.01163 101.469 6.40612C100.852 5.8006 100.402 5.04394 100.164 4.21064C99.2459 1.92619 98.3733 1.3832 97.2053 2.3248ZM99.0171 10.446L98.163 11.3448L97.2664 10.4648L96.3912 9.58472L97.2452 8.70462L98.1205 7.80582L98.9958 8.68592L99.8924 9.54456L99.0171 10.446Z" fill="#007073"/>
<path d="M86.8255 12.5807C86.3829 13.1424 86.0384 13.7755 85.8065 14.4532C85.5415 15.327 85.0611 16.1192 84.4099 16.7562C83.7587 17.3932 82.9578 17.8543 82.0818 18.0965C80.5201 18.7037 80.1875 19.0596 80.1875 20.0654C80.1875 20.8411 80.7702 21.3413 82.5394 22.0957C83.2868 22.3221 83.9669 22.7309 84.5189 23.2859C85.0708 23.8409 85.4776 24.5247 85.7027 25.2763C86.3679 26.9936 86.9319 27.641 87.7008 27.641C88.5335 27.641 89.2199 26.8866 89.7839 25.3592C90.0174 24.5508 90.4515 23.8154 91.0453 23.222C91.6392 22.6287 92.3733 22.1969 93.1787 21.9673C96.1771 20.9214 96.1559 19.0248 93.1575 17.9896C92.3617 17.7658 91.6352 17.3433 91.0454 16.7615C90.4556 16.1797 90.0216 15.4575 89.7839 14.6618C89.5615 14.0094 89.2537 13.3896 88.8687 12.8188C88.5913 12.5775 88.248 12.4258 87.8835 12.3833C87.5191 12.3409 87.1505 12.4096 86.8255 12.5807V12.5807ZM88.6585 20.8919L87.7859 21.772L86.9106 20.9133L86.0167 20.0332L86.8919 19.1344L87.7673 18.233L88.6612 19.113L89.5578 19.9931L88.6585 20.8919Z" fill="#007073"/>
<path d="M45.3111 24.5242C38.5918 24.7641 31.901 25.5271 25.2988 26.806C23.5834 27.4002 21.9916 28.307 20.603 29.481C18.7114 31.1342 17.7137 32.8514 15.3671 38.4181C14.1832 41.2429 13.1429 43.5675 13.0817 43.5675C13.0205 43.5675 12.8316 43.2759 12.688 42.9389C12.4649 42.4861 12.1498 42.0855 11.763 41.7629C11.3762 41.4404 10.9263 41.2031 10.4425 41.0664C9.10526 40.8836 7.7446 40.9903 6.45173 41.3794C2.37849 42.0696 2.06721 42.1818 1.17328 43.1582C0.389673 44.0485 -0.0290442 45.2045 0.00156748 46.3929C0.0321792 47.5814 0.509842 48.7139 1.33823 49.5622C2.13639 50.3647 2.35721 50.461 4.68515 50.9853C6.05798 51.2983 7.44942 51.6327 7.7607 51.6969L8.34335 51.844L6.84815 54.1471C5.3425 56.2905 4.2107 58.6759 3.50123 61.2012C3.0649 62.8757 3.04362 63.4 2.96913 74.4718C2.86537 87.3653 2.90793 87.8468 4.25681 90.5914C5.01755 92.0079 6.06849 93.2459 7.34022 94.224C8.61196 95.202 10.0756 95.8976 11.6344 96.265C12.9008 96.6208 15.3964 96.6422 52.9867 96.6422C90.7234 96.6422 93.0726 96.6208 94.339 96.265C96.4444 95.8067 98.3688 94.7349 99.8721 93.1835C101.375 91.6322 102.391 89.6699 102.791 87.5418C103.197 83.1579 103.273 78.7496 103.02 74.3541C102.959 63.0496 102.938 62.6938 102.488 61.0621C101.75 58.5973 100.628 56.266 99.1625 54.1552L97.6673 51.852L98.2499 51.7263C98.5612 51.6433 99.9527 51.3277 101.325 51.0147C103.653 50.4797 103.882 50.3861 104.672 49.5702C105.501 48.7219 105.978 47.5894 106.009 46.4009C106.04 45.2125 105.621 44.0566 104.837 43.1663C103.943 42.1819 103.632 42.0776 99.5589 41.3874C98.266 40.9983 96.9054 40.8916 95.5681 41.0744C95.0843 41.2111 94.6345 41.4484 94.2477 41.7709C93.8608 42.0935 93.5457 42.4942 93.3227 42.947C93.1764 43.2813 93.0114 43.5755 92.9289 43.5755C92.8464 43.5755 91.8275 41.251 90.6436 38.4262C87.717 31.4979 86.3202 29.5719 82.9281 27.7931C80.5602 26.5572 79.1661 26.2443 72.6 25.4685C63.5355 24.5328 54.4182 24.2173 45.3111 24.5242V24.5242ZM64.4296 28.082C68.2527 28.3495 72.6585 28.8149 76.3779 29.3579C77.9 29.4791 79.3902 29.8618 80.7837 30.4894C82.4127 31.2709 83.8206 32.4509 84.8782 33.9214C85.1895 34.3601 86.6874 37.6478 88.1826 41.1841L90.9468 47.6523L94.2938 52.7802C98.0344 58.5368 98.5133 59.4169 99.1785 61.6077C99.5935 63.0522 99.6361 63.5953 99.7106 71.4464L99.7718 79.7763H54.8091C11.1768 79.7763 9.81994 79.7977 9.34105 80.1749C9.02813 80.491 8.8507 80.9176 8.84672 81.3636C8.84275 81.8095 9.01254 82.2393 9.31976 82.561L9.79865 83.0211L54.7613 83.0826L99.7505 83.1254V84.487C99.9299 86.573 99.2914 88.6468 97.9712 90.2661C96.6511 91.8853 94.7537 92.9217 92.6842 93.154C91.7902 93.3011 78.3866 93.384 52.7765 93.384C20.462 93.384 13.9996 93.3225 12.8689 93.0898C11.2758 92.8514 9.79796 92.1144 8.64508 90.9836C7.49221 89.8527 6.72291 88.3855 6.44641 86.7902C6.28146 85.8887 6.23889 82.2694 6.28146 74.3353C6.38522 60.1231 6.07394 61.4606 11.1848 53.5479L14.0102 49.2144H87.0598L87.5919 48.733C87.7629 48.5932 87.9024 48.4185 88.0015 48.2206C88.1005 48.0227 88.1568 47.806 88.1666 47.5847C88.1764 47.3634 88.1395 47.1425 88.0583 46.9365C87.9772 46.7305 87.8536 46.5442 87.6957 46.3896L87.2168 45.8546H51.6086C30.0584 45.8546 16.0109 45.7717 16.0109 45.6674C16.0109 45.4374 20.0416 35.8501 20.603 34.7186C21.0484 33.9873 21.5711 33.3066 22.162 32.6883C23.9248 30.8579 26.2718 29.7093 28.792 29.4435C33.7991 28.6892 41.1155 28.0204 47.3916 27.769C50.257 27.6647 61.1678 27.8733 64.4296 28.082ZM9.71618 44.4529C10.2608 45.4582 10.6995 46.5179 11.0251 47.6148C10.9533 47.8933 10.8185 48.1514 10.6314 48.3691L10.2563 48.8507L6.99448 48.0963C5.18533 47.6763 3.62893 47.2804 3.53581 47.2162C3.24582 47.0503 3.30701 45.4588 3.61829 45.3437C3.80453 45.2608 7.96024 44.4637 9.39426 44.2122C9.46609 44.2069 9.60976 44.3272 9.71618 44.4529ZM99.8622 44.8301C100.77 44.9348 101.658 45.1671 102.501 45.5202C102.604 45.7653 102.657 46.0287 102.657 46.2947C102.657 46.5607 102.604 46.824 102.501 47.0691C101.389 47.5302 100.229 47.8675 99.0428 48.0749L95.7384 48.8293L95.3633 48.3477C94.8844 47.7191 94.8844 47.5934 95.5495 46.0446C96.2572 44.37 96.4009 44.1721 96.941 44.3085C97.1591 44.3487 98.4894 44.5974 99.8622 44.8301Z" fill="#007073"/>
<path d="M12.501 59.575C11.6487 59.9869 10.9644 60.6824 10.5641 61.5438C10.146 62.4638 9.98767 63.4818 10.1065 64.4863C9.96864 65.6221 10.1715 66.7735 10.6892 67.7926C11.2602 68.9306 12.2211 69.8227 13.3949 70.3044C13.9563 70.513 28.2937 72.5434 29.1957 72.5434C29.4072 72.5709 29.6222 72.5532 29.8265 72.4913C30.0308 72.4295 30.2198 72.3249 30.3811 72.1844C30.5424 72.044 30.6723 71.8709 30.7624 71.6764C30.8524 71.482 30.9006 71.2705 30.9037 71.0561C29.5418 67.589 27.6984 64.3332 25.4284 61.3859C24.5956 60.4443 24.0981 60.2972 20.2031 59.8986C17.6592 59.4687 15.0717 59.36 12.501 59.575V59.575ZM18.7478 63.114C20.2883 63.2397 21.8713 63.3815 22.265 63.4698C23.0366 63.5955 23.5554 64.2241 25.2421 67.0917C26.0403 68.4292 26.1574 68.7662 25.8674 68.7662C25.6811 68.7662 22.994 68.3891 19.9131 67.929C17.8639 67.8539 15.8396 67.4512 13.9164 66.7359C13.382 65.7226 13.2057 64.5569 13.4162 63.4296L13.5625 62.6753L14.7491 62.801C15.3956 62.8625 17.2047 63.015 18.7478 63.114V63.114Z" fill="#007073"/>
<path d="M88.8153 59.5698C86.3267 59.6937 83.8535 60.0365 81.4244 60.5943C80.0403 61.9074 78.8927 63.4514 78.0323 65.1579C75.7841 68.927 74.9301 70.6844 75.0764 71.2702C75.1326 71.6543 75.3362 72.0011 75.6435 72.2361C75.9508 72.4711 76.3375 72.5757 76.7207 72.5275C77.9285 72.5275 92.0239 70.5186 92.7316 70.2457C93.7092 69.8018 94.536 69.0795 95.1096 68.1681C95.6832 67.2566 95.9784 66.1961 95.9588 65.1177C96.1536 64.0676 96.0295 62.9829 95.6024 62.0048C95.1753 61.0267 94.4651 60.2005 93.5644 59.634C92.8327 59.3237 92.2713 59.3237 88.8153 59.5698ZM92.4575 63.0875C93.0189 64.1762 92.4789 66.7308 91.5823 67.0652C90.9996 67.2738 79.9638 68.844 79.8601 68.7183C80.7345 67.0471 81.7221 65.4383 82.8159 63.9033C83.0907 63.6534 83.43 63.4865 83.795 63.4218C84.2951 63.3389 88.4987 62.9617 91.8722 62.7103C91.9929 62.7231 92.1088 62.7644 92.2105 62.8309C92.3123 62.8974 92.3969 62.9871 92.4575 63.0928V63.0875Z" fill="#007073"/>
<path d="M30.2157 61.747C29.923 62.0142 29.7344 62.3774 29.6836 62.7716C31.0975 66.4403 32.7598 70.0073 34.6587 73.4475C35.0764 73.8461 35.6591 73.9076 44.1328 74.3891L53.1466 74.9241L62.0354 74.3891C70.9055 73.8862 70.9055 73.8862 71.403 73.3646C73.3114 69.9743 74.9544 66.4397 76.317 62.793C76.2705 62.379 76.0824 61.9942 75.7849 61.7043C75.2528 61.1693 75.2022 61.1693 73.4543 61.3057C61.3759 62.705 49.1843 62.8171 37.0825 61.6401C30.5589 61.1211 30.809 61.1211 30.2157 61.747ZM40.8338 65.3262C49.9082 66.0216 59.0252 65.9375 68.0854 65.0747C70.1473 64.9276 71.8527 64.8073 71.874 64.8447C71.9351 64.9062 69.397 70.3713 69.2294 70.5184C69.1682 70.5799 65.6271 70.8314 61.3383 71.0828C56.5261 71.5229 51.6858 71.5578 46.8678 71.1871C43.2043 70.9785 39.4343 70.7671 38.4766 70.7056L36.7685 70.5799L36.3721 69.7212C36.1646 69.2397 35.5394 67.9424 35.0179 66.8108L34.0601 64.7377L35.3505 64.8848C36.0688 64.9517 38.5324 65.139 40.8231 65.3289L40.8338 65.3262Z" fill="#007073"/>
<path d="M3.4364 94.9627L2.9043 95.4977L2.96549 99.9569C3.02668 104.416 3.02668 104.438 3.59071 105.275C3.9672 105.818 4.46701 106.262 5.04867 106.572C5.90269 106.992 6.29911 107.011 11.0029 107.011C12.951 107.178 14.9127 107.072 16.8321 106.698C18.6944 105.895 19.3516 104.625 19.3728 101.757C19.3728 100.04 19.3117 99.6626 18.9365 99.1811C18.8025 98.99 18.6193 98.8393 18.4065 98.745C18.1937 98.6507 17.9593 98.6166 17.7287 98.6461C16.4596 98.6461 16.1669 99.149 16.0419 101.535L15.9381 103.565H6.36296L6.23792 99.4834C6.17672 97.2444 6.11287 95.38 6.09159 95.3586C5.13114 94.2939 4.21593 94.1682 3.4364 94.9627Z" fill="#007073"/>
<path d="M100.288 94.8796L99.7556 95.2996V99.2345C99.877 100.628 99.7927 102.031 99.5055 103.399C97.9287 103.708 96.3168 103.792 94.7166 103.651C89.4276 103.651 89.7628 103.819 89.7628 101.161C89.7628 99.2131 89.4089 98.6273 88.2861 98.6273C86.9319 98.6273 86.4238 99.4298 86.4238 101.642C86.4451 104.301 87.1927 105.871 88.797 106.604C89.5473 106.939 90.2124 107.003 94.7512 107.003C100.434 107.003 100.977 106.877 102.1 105.558C102.932 104.552 103.079 103.686 103.079 99.5288C103.079 95.741 103.079 95.7196 102.546 95.0909C102.426 94.9092 102.266 94.7568 102.079 94.645C101.893 94.5331 101.684 94.4646 101.467 94.4443C101.251 94.4241 101.033 94.4526 100.828 94.5279C100.624 94.6032 100.44 94.7234 100.288 94.8796V94.8796Z" fill="#007073"/>
</g>
<defs>
<clipPath id="clip0_1_32">
<rect width="106" height="107" fill="white"/>
</clipPath>
</defs>
</svg>
