<svg width="105" height="105" viewBox="0 0 105 105" fill="none" xmlns="http://www.w3.org/2000/svg">
<g clip-path="url(#clip0_1_52)">
<path d="M68.0213 0.233597C64.8141 0.743658 61.7619 1.9647 59.0888 3.80708C56.4157 5.64946 54.1894 8.06642 52.5735 10.8806C51.455 13.2201 50.4579 15.6155 49.5859 18.0574L47.468 23.709H45.6654V22.5435C45.6654 21.5697 45.5814 21.273 45.1399 20.8504C44.6538 20.3411 44.504 20.3254 42.1313 20.3254C38.883 20.3775 35.6445 20.6961 32.4485 21.2782C31.3217 21.4371 30.2603 21.9021 29.3799 22.6224C28.4996 23.3426 27.8341 24.2905 27.456 25.3627C26.916 26.8217 26.938 28.4291 27.5178 29.8728C28.0976 31.3164 29.1937 32.4932 30.5934 33.1747C31.7811 33.747 31.8862 33.768 36.3742 33.873L40.9304 33.978L37.9218 37.6819C34.7901 41.0031 32.5139 45.0355 31.2897 49.4314C30.5014 52.521 30.4199 53.8571 30.4199 66.6855C30.4199 80.2987 30.462 80.9314 31.5866 83.3464L32.1122 84.5119V92.5785C32.0072 95.5561 32.095 98.5372 32.3749 101.503C33.0113 102.963 34.1773 104.128 35.6384 104.764C38.4269 105.039 41.2308 105.126 44.0311 105.026C52.7627 105.026 52.9308 105.005 54.4365 103.333C55.6872 101.937 55.8554 101.217 55.8554 97.2142C55.8554 93.954 55.8764 93.8018 56.2784 93.8018C56.5123 93.8018 58.2492 93.9488 60.1358 94.1194C66.7049 94.7126 72.554 94.8596 88.7769 94.8596H105.029V91.5154L86.0206 91.4104C66.4605 91.3054 63.9485 91.2187 56.0157 90.3105C50.4695 89.9173 44.9833 88.9164 39.656 87.3259C37.7399 86.2534 36.1452 84.6893 35.0367 82.7951C33.849 80.3381 33.828 79.9995 33.828 68.5703C33.6729 65.055 33.751 61.5332 34.0618 58.0282C34.188 58.0282 35.9275 58.2907 37.9192 58.6635C45.2656 59.9432 52.6947 60.6933 60.1489 60.9079L64.7262 61.0575L65.4042 60.3803C66.0611 59.745 66.0821 59.661 65.9297 58.5427C65.3165 54.1986 63.3179 50.1677 60.2304 47.0479C58.4996 45.211 56.4261 43.7298 54.1264 42.6877C51.0538 41.2083 47.6582 40.5241 44.2518 40.698L39.9503 40.572L44.1046 35.49L48.28 30.4106L51.1703 29.967C56.3625 29.1611 56.3625 29.1612 56.1076 29.6494C55.4507 30.8569 56.0656 31.7862 57.8865 32.4214C59.599 33.0282 61.1055 34.1049 62.2335 35.5279C63.3614 36.951 64.0651 38.6627 64.2638 40.467C64.4556 41.6298 65.1546 42.3727 66.0427 42.3727C66.9308 42.3727 67.6193 41.6325 67.8216 40.467C68.1514 37.9147 69.4298 35.5798 71.4031 33.9255C72.4271 33.1269 73.6025 32.5437 74.8584 32.2114C75.3839 32.2114 76.2143 31.2165 76.2143 30.5812C76.2143 29.6704 75.7045 29.1218 74.4774 28.7175C73.9035 28.5434 73.3495 28.3093 72.8246 28.0193C72.3148 27.6597 72.3359 27.6597 74.3092 27.51C75.4102 27.426 82.786 27.2974 90.6899 27.2134L105.037 27.0664V23.7432H94.3344C88.4643 23.7432 81.2383 23.8481 78.3058 24.0056C75.3734 24.1631 72.0337 24.2681 70.9301 24.2681L68.9384 24.2891L68.5363 23.2391C68.2661 22.4481 68.0398 21.6427 67.8584 20.8267C67.5404 19.2806 67.0333 18.6873 66.0191 18.6873C65.1703 18.6873 64.4714 19.4486 64.2822 20.5931C64.0565 22.0475 63.5448 23.4428 62.7766 24.6986C62.4166 25.0792 61.9489 25.2079 59.81 25.4179C58.4121 25.5649 55.6557 25.9271 53.664 26.2054C51.6722 26.4836 50.0615 26.7304 50.0405 26.7304C49.9354 26.7304 54.807 14.028 55.2537 13.1828C57.3192 9.29955 60.6988 6.27593 64.7893 4.65151C67.819 3.46501 68.1369 3.44403 87.3869 3.44403H105.06V0L87.2188 0.0209885C77.3231 0.0419885 68.7098 0.125972 68.0213 0.233597ZM42.2706 24.8745C42.2706 25.8484 42.3546 26.145 42.7961 26.5676C43.2402 27.0323 43.495 27.0927 44.7037 27.0927C45.7206 27.0927 46.0806 27.1766 46.0806 27.3892C45.7882 27.9922 45.418 28.5544 44.9796 29.0614L43.8577 30.4579H38.2424C33.0082 30.4789 32.5851 30.4579 31.9361 30.0563C31.5007 29.8097 31.1356 29.4561 30.8754 29.029C30.6152 28.6019 30.4686 28.1155 30.4494 27.6158C30.4302 27.1162 30.539 26.6201 30.7656 26.1743C30.9923 25.7285 31.3291 25.3479 31.7443 25.0687C34.6609 24.1684 37.6965 23.7118 40.7491 23.7142L42.2758 23.6933L42.2706 24.8745ZM66.7075 26.9903C67.2934 27.7977 67.9608 28.5427 68.6992 29.2136L70.0971 30.4841L68.6362 31.8386C67.8947 32.5066 67.227 33.252 66.6444 34.062C66.474 34.3798 66.26 34.6723 66.0085 34.9309C65.7267 34.6521 65.4908 34.3305 65.3096 33.978C64.7238 33.1706 64.0563 32.4255 63.3179 31.7546L61.92 30.4841L63.3179 29.2136C64.0563 28.5427 64.7238 27.7977 65.3096 26.9903C65.4908 26.6378 65.7267 26.3162 66.0085 26.0374C66.2905 26.3161 66.5264 26.6377 66.7075 26.9903V26.9903ZM49.8618 44.646C52.9635 45.5758 55.7703 47.2943 58.0074 49.6335C59.8833 51.724 61.2724 54.2037 62.075 56.8943L62.2248 57.5925H61.292C57.9023 57.5715 48.5348 56.805 44.5934 56.238L42.7934 55.9755L43.6842 55.713C45.0585 55.2773 46.2121 54.3298 46.9057 53.067C47.3458 52.1832 47.5219 51.1914 47.4128 50.2103C47.3037 49.2291 46.9141 48.3001 46.2905 47.5343C45.6669 46.7685 44.8358 46.1983 43.8965 45.8918C42.9571 45.5854 41.9493 45.5557 40.9935 45.8063C40.3178 45.9902 39.6865 46.3093 39.1379 46.7442C38.5893 47.1791 38.1348 47.7206 37.8019 48.3362C37.469 48.9517 37.2647 49.6284 37.2013 50.3252C37.1379 51.022 37.2167 51.7243 37.4331 52.3898C38.0074 53.6129 38.9096 54.6532 40.0397 55.3954C40.4628 55.6579 38.81 55.4164 35.3783 54.8022L33.8963 54.5396L33.9804 53.4897C34.2748 50.9625 35.0065 48.5057 36.1429 46.2289L37.2229 44.0265L42.7409 44.1315C45.1269 43.9457 47.5273 44.1191 49.8618 44.646V44.646ZM43.4398 49.6335C43.6743 49.8661 43.8347 50.1629 43.9006 50.4864C43.9666 50.8099 43.9352 51.1457 43.8104 51.4514C43.6857 51.7571 43.4731 52.019 43.1995 52.2042C42.926 52.3894 42.6036 52.4896 42.2732 52.4921C41.8311 52.4694 41.4131 52.2836 41.1001 51.9709C40.7871 51.6582 40.6012 51.2406 40.5784 50.799C40.6012 50.3573 40.7871 49.9398 41.1001 49.6271C41.4131 49.3143 41.8311 49.1287 42.2732 49.1059C42.4936 49.1129 42.7103 49.1639 42.9107 49.2558C43.1111 49.3478 43.291 49.4789 43.4398 49.6414V49.6335ZM38.492 90.4995C41.5768 91.6502 44.8078 92.3632 48.0908 92.6178C50.1929 92.9355 52.0322 93.2321 52.1793 93.2741C52.3712 93.3161 52.4421 94.248 52.4421 96.9492C52.4421 100.506 52.4421 100.569 51.9166 101.078L51.4068 101.603H36.5318L36.0221 101.078L35.4965 100.572V88.6541L36.2375 89.2054C36.9537 89.6954 37.7076 90.1281 38.492 90.4995V90.4995Z" fill="#007073"/>
<path d="M51.068 49.408C50.5714 49.632 50.137 49.9735 49.8022 50.4028C49.4674 50.8322 49.2422 51.3366 49.1462 51.8724C49.0502 52.4081 49.0863 52.9592 49.2513 53.4779C49.4162 53.9966 49.7052 54.4674 50.0931 54.8496C50.3924 55.1746 50.7559 55.4341 51.1607 55.6116C51.5655 55.7891 52.0027 55.8807 52.4448 55.8807C52.8869 55.8807 53.3241 55.7891 53.7289 55.6116C54.1337 55.4341 54.4973 55.1746 54.7965 54.8496C55.3501 54.2962 55.6927 53.5668 55.7649 52.7878C55.8372 52.0087 55.6346 51.2289 55.1922 50.5833C54.7498 49.9377 54.0955 49.4669 53.3423 49.2522C52.5892 49.0376 51.7847 49.0927 51.068 49.408V49.408Z" fill="#007073"/>
<path d="M42.9696 3.70386C42.5399 4.183 42.2277 4.75546 42.0578 5.37597C41.3589 7.49172 40.363 8.4656 38.8784 8.4656C38.4363 8.48839 38.0183 8.67407 37.7053 8.98679C37.3923 9.2995 37.2064 9.71703 37.1836 10.1587C37.2064 10.6004 37.3923 11.018 37.7053 11.3307C38.0183 11.6434 38.4363 11.8291 38.8784 11.8519C40.3604 11.8519 41.3589 12.8258 42.0578 14.9415C42.5439 16.38 43.0747 16.9312 43.9655 16.9312C44.8562 16.9312 45.3844 16.38 45.8731 14.9415C46.5721 12.8258 47.568 11.8519 49.0526 11.8519C49.4947 11.8291 49.9126 11.6434 50.2257 11.3307C50.5387 11.018 50.7246 10.6004 50.7474 10.1587C50.7246 9.71703 50.5387 9.2995 50.2257 8.98679C49.9126 8.67407 49.4947 8.48839 49.0526 8.4656C47.5706 8.4656 46.5511 7.49176 45.8731 5.43901C45.3844 3.93489 44.8773 3.38623 43.9655 3.38623C43.6122 3.40753 43.2699 3.51672 42.9696 3.70386V3.70386ZM44.3886 9.8647C44.6224 10.1272 44.6014 10.2454 44.3255 10.542C43.9865 10.8596 43.9445 10.8596 43.6055 10.542C43.3428 10.2454 43.3086 10.1193 43.5424 9.8647C43.644 9.70993 43.7921 9.59137 43.9655 9.52608C44.1408 9.5904 44.2909 9.70906 44.3938 9.8647H44.3886Z" fill="#007073"/>
<path d="M74.5884 44.2234C73.6075 44.4849 72.6937 44.9524 71.908 45.5947C71.1223 46.2371 70.4827 47.0394 70.032 47.9482C69.3631 50.0552 69.218 52.2932 69.609 54.4688C70.0412 56.4278 71.0279 58.2216 72.4515 59.6363C73.8752 61.0511 75.6758 62.0273 77.6391 62.4487C78.338 62.5747 83.8481 62.6613 91.8781 62.6613H104.995V59.2751H101.606V54.1958H104.995V50.8095H101.606V47.4232H104.995V44.0317L90.1203 44.0527C81.9247 44.0737 74.9536 44.1367 74.5884 44.2234ZM77.8729 49.1138V50.8068H75.3294C72.5756 50.8068 72.5546 50.8069 73.0197 49.5994C73.3055 48.8881 73.8163 48.2898 74.4744 47.8959C75.1325 47.502 75.9017 47.3342 76.6642 47.418H77.8729V49.1138ZM84.6548 49.1138V50.8068H81.2651V47.4206H84.6548V49.1138ZM91.4367 49.1138V50.8068H88.0471V47.4206H91.4367V49.1138ZM98.2187 49.1138V50.8068H94.8211V47.4206H98.2107L98.2187 49.1138ZM77.8756 56.6291V59.0625L77.35 58.8498C76.3996 58.5073 75.5365 57.9597 74.8221 57.2461C74.1077 56.5324 73.5596 55.6701 73.2167 54.7207L73.0039 54.1958H77.8782L77.8756 56.6291ZM84.6574 56.7341V59.2751H81.2678V54.1958H84.6574V56.7341ZM91.4393 56.7341V59.2751H88.0497V54.1958H91.4393V56.7341ZM98.2212 56.7341V59.2751H94.8211V54.1958H98.2107L98.2212 56.7341Z" fill="#007073"/>
<path d="M8.90038 49.6387L8.37485 50.1479L8.35383 55.1853V60.2226L5.40826 62.551C2.27087 65.0264 1.20406 66.226 0.47095 67.9926C0.00585949 69.1135 0.00585938 69.2001 0.00585938 84.5695V100.023L0.491972 100.976C1.10369 102.365 2.18305 103.496 3.54265 104.173L4.87748 104.892H22.0411L23.1211 104.32C24.4656 103.729 25.5549 102.678 26.1928 101.356L26.9128 100.023V84.5695C26.9128 69.2001 26.9128 69.1161 26.4477 67.9926C25.7277 66.1919 24.6478 65.029 21.5104 62.551L18.5648 60.2226L18.5438 55.1853V50.1636L18.0182 49.6544C17.5085 49.1294 17.4664 49.1294 13.4619 49.1294C9.45744 49.1294 9.41014 49.1137 8.90038 49.6387ZM15.1515 55.8836V59.2698H11.7619V52.4946H15.1515V55.8836ZM19.2191 65.008C21.9518 67.2104 23.2026 68.5019 23.2026 69.1581C23.2026 69.3708 21.1898 69.4206 13.4541 69.4206C10.2033 69.5849 6.94473 69.5068 3.70556 69.187C3.70556 68.5098 4.89325 67.2393 7.60496 65.0789L10.5926 62.6665L13.433 62.6455H16.2525L19.2191 65.008ZM23.6256 83.8267V94.8359H3.28514V72.8201H23.6282L23.6256 83.8267ZM23.5415 98.8994C23.3523 99.7874 22.8184 100.564 22.0569 101.06C21.4841 101.482 21.2292 101.503 13.4541 101.503C5.67891 101.503 5.42403 101.482 4.8512 101.06C4.0897 100.564 3.55584 99.7874 3.3666 98.8994L3.24047 98.2221H23.6887L23.5415 98.8994Z" fill="#007073"/>
<path d="M16.8457 77.9021V79.5952H20.2353V76.209H16.8457V77.9021Z" fill="#007073"/>
<path d="M12.456 78.22C12.0263 78.6991 11.7141 79.2716 11.5442 79.8921C10.8452 82.0078 9.84935 82.9817 8.36474 82.9817C7.92264 83.0045 7.50468 83.1902 7.19165 83.5029C6.87862 83.8157 6.69274 84.2332 6.66992 84.6748C6.69274 85.1165 6.87862 85.534 7.19165 85.8468C7.50468 86.1595 7.92264 86.3452 8.36474 86.368C9.84935 86.368 10.8452 87.3418 11.5442 89.4576C12.0303 90.8961 12.5611 91.4473 13.4518 91.4473C14.3426 91.4473 14.8707 90.8961 15.3595 89.4576C16.0584 87.3418 17.0543 86.368 18.5389 86.368C18.981 86.3452 19.399 86.1595 19.712 85.8468C20.025 85.534 20.2109 85.1165 20.2337 84.6748C20.2109 84.2332 20.025 83.8157 19.712 83.5029C19.399 83.1902 18.981 83.0045 18.5389 82.9817C17.0543 82.9817 16.0374 82.0078 15.3595 79.9551C14.8734 78.451 14.3636 77.9023 13.4518 77.9023C13.0986 77.9236 12.7562 78.0328 12.456 78.22V78.22ZM13.8749 84.3808C14.1087 84.6433 14.0877 84.7615 13.8118 85.0581C13.4728 85.3757 13.4308 85.3757 13.0918 85.0581C12.8291 84.7615 12.7949 84.6355 13.0288 84.3808C13.1302 84.226 13.2784 84.1074 13.4518 84.0422C13.6272 84.1064 13.7773 84.2251 13.8801 84.3808H13.8749Z" fill="#007073"/>
<path d="M37.715 69.9616L37.1895 70.4708V75.4242C37.1895 81.1599 37.3366 81.8607 38.8002 83.3202C39.3478 83.9141 40.0531 84.3402 40.834 84.5487C41.596 84.7614 46.2364 85.121 55.0521 85.6276C67.1392 86.3468 68.1902 86.3679 68.6553 86.0712C69.6091 85.457 69.546 84.9923 67.8066 78.8945C66.8948 75.7182 66.0697 72.8176 65.9672 72.437C65.8541 72.0466 65.625 71.6997 65.3103 71.4421C60.869 70.8011 56.3949 70.412 51.9094 70.2766C44.8148 69.812 38.8133 69.4287 38.6005 69.4287C38.2549 69.5047 37.9438 69.6919 37.715 69.9616V69.9616ZM52.6924 73.7311C58.2446 74.1117 62.864 74.4713 62.9402 74.5553C63.132 74.768 65.376 82.622 65.2499 82.727C65.2079 82.79 60.0787 82.5143 53.8697 82.1547C47.6606 81.7951 42.4053 81.4985 42.1925 81.4985C41.8008 81.3971 41.4474 81.1836 41.1756 80.8842L40.5607 80.27V73.0302H41.5776C42.1478 73.0565 47.1481 73.3531 52.6924 73.7337V73.7311Z" fill="#007073"/>
<path d="M71.5828 71.6807C71.0572 72.2057 71.0309 72.2949 71.1807 74.009C71.4227 77.6252 73.0173 81.0182 75.6477 83.5141C77.3457 85.2916 79.4569 86.6226 81.7937 87.3886L83.4885 87.9609L94.2618 88.0239L105.006 88.0869V84.6744H95.0895C85.8507 84.6744 85.044 84.6534 83.499 84.2517C81.4246 83.7335 79.5284 82.6662 78.0099 81.1622C76.7153 79.9303 75.7466 78.3971 75.1905 76.6996C74.2997 74.2453 72.4998 74.5183 89.8552 74.5183H105.006V71.1294H72.1346L71.5828 71.6807Z" fill="#007073"/>
</g>
<defs>
<clipPath id="clip0_1_52">
<rect width="105" height="105" fill="white"/>
</clipPath>
</defs>
</svg>
